<svg width="350" height="222" viewBox="0 0 350 222" fill="none" xmlns="http://www.w3.org/2000/svg">
<path d="M349.92 20.939V200.569C349.92 212.127 340.539 221.508 328.981 221.508H20.939C9.3811 221.508 0 212.127 0 200.569V20.939C0 9.3811 9.3811 0 20.939 0H328.991C333.127 0 336.994 1.20244 340.228 3.28597C346.054 6.98658 349.92 13.5171 349.92 20.939Z" fill="url(#paint0_linear_3_306)"/>
<path d="M349.92 20.939V157.333C317.009 169.813 279.909 165.605 270.901 149.756C264.298 138.135 277.763 129.076 274.021 107.639C272.238 97.4805 267.563 90.0585 260.898 83.0512C251.973 73.6287 239.462 64.9732 225.665 51.4768C216.791 42.8006 195.044 21.5299 183.185 0H328.981C333.117 0 336.984 1.20244 340.228 3.29634C346.064 6.98659 349.92 13.5067 349.92 20.939Z" fill="url(#paint1_linear_3_306)"/>
<path d="M349.92 68.2176V200.569C349.92 212.127 340.549 221.497 328.991 221.497H20.939C9.38111 221.497 0.010376 212.127 0.010376 200.569V98.942C6.0433 92.9713 13.1024 87.3841 21.3226 82.678C46.3872 68.3005 70.6122 69.2646 118.036 71.7627C175.173 74.7688 179.195 84.5542 219.424 85.7981C235.979 86.3164 249.454 85.0932 260.898 83.0511C299.47 76.0749 314.749 59.4792 345.774 67.0774C347.152 67.4194 348.531 67.7926 349.92 68.2176Z" fill="url(#paint2_linear_3_306)"/>
<path d="M107.795 0C102.093 55.6543 56.4524 99.4811 0 102.352V20.939C0 9.3811 9.3811 0 20.939 0H107.795Z" fill="url(#paint3_linear_3_306)"/>
<path opacity="0.33" d="M259.748 221.498H112.563L176.147 157.913C181.651 152.419 190.649 152.419 196.153 157.913L259.748 221.498Z" fill="url(#paint4_linear_3_306)"/>
<path opacity="0.27" d="M349.92 198.112V200.559C349.92 212.117 340.539 221.498 328.981 221.498H20.939C9.3811 221.498 0 212.117 0 200.559V118.192C5.80488 115.102 12.5116 112.749 20.0268 111.92C37.4415 110.023 51.1037 117.279 67.15 126.059C97.9262 142.904 102.767 156.224 120.171 167.295C153.653 188.596 181.164 168.238 237.99 169.648C280.801 170.726 326.265 183.787 349.92 198.112Z" fill="url(#paint5_linear_3_306)"/>
<path opacity="0.53" d="M349.92 20.939V200.569C349.92 212.127 340.539 221.508 328.981 221.508H20.939C9.3811 221.508 0 212.127 0 200.569V20.939C0 9.3811 9.3811 0 20.939 0H328.991C333.127 0 336.994 1.20244 340.228 3.28597C346.054 6.98658 349.92 13.5171 349.92 20.939Z" fill="url(#paint6_linear_3_306)"/>
<path d="M35.4719 93.6867V95.4489L32.9634 95.3348L34.425 97.3458L32.8494 98.2891L31.6055 96.0293L30.3616 98.2891L28.8171 97.3458L30.2475 95.3348L27.7597 95.4489V93.6867L30.2475 93.8214L28.8171 91.7793L30.3616 90.8361L31.6055 93.0958L32.8494 90.8361L34.425 91.7793L32.9634 93.8214L35.4719 93.6867Z" fill="white"/>
<path d="M48.4085 93.6867V95.4489L45.9 95.3348L47.3616 97.3458L45.786 98.2891L44.5421 96.0293L43.2982 98.2891L41.7537 97.3458L43.1842 95.3348L40.6964 95.4489V93.6867L43.1842 93.8214L41.7537 91.7793L43.2982 90.8361L44.5421 93.0958L45.786 90.8361L47.3616 91.7793L45.9 93.8214L48.4085 93.6867Z" fill="white"/>
<path d="M61.3555 93.6867V95.4489L58.8469 95.3348L60.3085 97.3458L58.7329 98.2891L57.489 96.0293L56.2451 98.2891L54.7006 97.3458L56.1311 95.3348L53.6433 95.4489V93.6867L56.1311 93.8214L54.7006 91.7793L56.2451 90.8361L57.489 93.0958L58.7329 90.8361L60.3085 91.7793L58.8469 93.8214L61.3555 93.6867Z" fill="white"/>
<path d="M74.3024 93.6867V95.4489L71.7939 95.3348L73.2555 97.3458L71.6799 98.2891L70.436 96.0293L69.1921 98.2891L67.6476 97.3458L69.078 95.3348L66.5902 95.4489V93.6867L69.078 93.8214L67.6476 91.7793L69.1921 90.8361L70.436 93.0958L71.6799 90.8361L73.2555 91.7793L71.7939 93.8214L74.3024 93.6867Z" fill="white"/>
<path d="M96.2159 93.6867V95.4489L93.7073 95.3348L95.1689 97.3458L93.5933 98.2891L92.3494 96.0293L91.1055 98.2891L89.561 97.3458L90.9915 95.3348L88.5037 95.4489V93.6867L90.9915 93.8214L89.561 91.7793L91.1055 90.8361L92.3494 93.0958L93.5933 90.8361L95.1689 91.7793L93.7073 93.8214L96.2159 93.6867Z" fill="white"/>
<path d="M109.163 93.6867V95.4489L106.654 95.3348L108.116 97.3458L106.54 98.2891L105.296 96.0293L104.052 98.2891L102.508 97.3458L103.938 95.3348L101.451 95.4489V93.6867L103.938 93.8214L102.508 91.7793L104.052 90.8361L105.296 93.0958L106.54 90.8361L108.116 91.7793L106.654 93.8214L109.163 93.6867Z" fill="white"/>
<path d="M122.11 93.6867V95.4489L119.601 95.3348L121.063 97.3458L119.487 98.2891L118.243 96.0293L116.999 98.2891L115.455 97.3458L116.885 95.3348L114.398 95.4489V93.6867L116.885 93.8214L115.455 91.7793L116.999 90.8361L118.243 93.0958L119.487 90.8361L121.063 91.7793L119.601 93.8214L122.11 93.6867Z" fill="white"/>
<path d="M135.046 93.6867V95.4489L132.538 95.3348L133.999 97.3458L132.424 98.2891L131.18 96.0293L129.936 98.2891L128.391 97.3458L129.822 95.3348L127.334 95.4489V93.6867L129.822 93.8214L128.391 91.7793L129.936 90.8361L131.18 93.0958L132.424 90.8361L133.999 91.7793L132.538 93.8214L135.046 93.6867Z" fill="white"/>
<path d="M156.97 93.6867V95.4489L154.462 95.3348L155.923 97.3458L154.348 98.2891L153.104 96.0293L151.86 98.2891L150.315 97.3458L151.746 95.3348L149.258 95.4489V93.6867L151.746 93.8214L150.315 91.7793L151.86 90.8361L153.104 93.0958L154.348 90.8361L155.923 91.7793L154.462 93.8214L156.97 93.6867Z" fill="white"/>
<path d="M169.907 93.6867V95.4489L167.398 95.3348L168.86 97.3458L167.284 98.2891L166.04 96.0293L164.796 98.2891L163.252 97.3458L164.682 95.3348L162.195 95.4489V93.6867L164.682 93.8214L163.252 91.7793L164.796 90.8361L166.04 93.0958L167.284 90.8361L168.86 91.7793L167.398 93.8214L169.907 93.6867Z" fill="white"/>
<path d="M182.854 93.6867V95.4489L180.345 95.3348L181.807 97.3458L180.231 98.2891L178.987 96.0293L177.743 98.2891L176.199 97.3458L177.629 95.3348L175.141 95.4489V93.6867L177.629 93.8214L176.199 91.7793L177.743 90.8361L178.987 93.0958L180.231 90.8361L181.807 91.7793L180.345 93.8214L182.854 93.6867Z" fill="white"/>
<path d="M195.801 93.6867V95.4489L193.292 95.3348L194.754 97.3458L193.178 98.2891L191.934 96.0293L190.69 98.2891L189.146 97.3458L190.576 95.3348L188.088 95.4489V93.6867L190.576 93.8214L189.146 91.7793L190.69 90.8361L191.934 93.0958L193.178 90.8361L194.754 91.7793L193.292 93.8214L195.801 93.6867Z" fill="white"/>
<path d="M209.411 110.521V108.427L216.232 101.471C218.056 99.647 218.968 98.0818 218.968 96.7757C218.968 95.6873 218.637 94.8477 217.973 94.2361C217.31 93.6245 216.501 93.3239 215.548 93.3239C213.723 93.3239 212.396 94.1842 211.577 95.9153L209.421 94.6507C210.023 93.3964 210.873 92.4531 211.951 91.8105C213.029 91.1678 214.221 90.8464 215.527 90.8464C217.144 90.8464 218.554 91.3855 219.746 92.4428C220.938 93.5105 221.539 94.9409 221.539 96.7446C221.539 98.6934 220.388 100.818 218.087 103.12L213.163 108.033H221.902V110.521H209.411Z" fill="white"/>
<path d="M233.47 99.1182C234.942 99.3981 236.155 100.03 237.088 101.026C238.031 102.021 238.498 103.285 238.498 104.809C238.498 106.685 237.855 108.168 236.57 109.256C235.284 110.344 233.719 110.883 231.874 110.883C230.402 110.883 229.096 110.552 227.955 109.878C226.815 109.204 226.007 108.24 225.53 106.965L227.686 105.69C228.256 107.473 229.655 108.365 231.884 108.365C233.076 108.365 234.051 108.054 234.807 107.421C235.564 106.799 235.937 105.918 235.937 104.799C235.937 103.679 235.564 102.798 234.807 102.166C234.051 101.533 233.076 101.212 231.884 101.212H231.221L230.195 99.6365L234.662 93.5932H226.079V91.1884H237.668L237.658 93.4585L233.47 99.1182Z" fill="white"/>
<path d="M257.571 104.446V106.851H255.228V110.521H252.657V106.851H242.799V104.446L249.724 91.1987H252.481L245.557 104.446H252.647V98.9835H255.218V104.446H257.571Z" fill="white"/>
<path d="M267.667 98.7347C269.491 98.7347 271.036 99.2737 272.29 100.352C273.555 101.43 274.187 102.912 274.187 104.809C274.187 106.685 273.545 108.168 272.259 109.256C270.974 110.344 269.409 110.883 267.563 110.883C266.091 110.883 264.775 110.531 263.614 109.826C262.453 109.121 261.645 108.095 261.188 106.748L263.365 105.504C263.624 106.447 264.122 107.152 264.858 107.639C265.594 108.126 266.496 108.375 267.563 108.375C268.776 108.375 269.761 108.064 270.518 107.432C271.274 106.799 271.648 105.929 271.648 104.809C271.648 103.69 271.274 102.808 270.518 102.176C269.761 101.544 268.797 101.223 267.615 101.223H262.152L262.847 91.1987H273.441V93.6036H265.19L264.848 98.7347H267.667Z" fill="white"/>
<path d="M29.3976 163.304C28.2677 163.304 27.3348 162.931 26.5988 162.184C25.8628 161.438 25.5 160.526 25.5 159.437C25.5 158.349 25.8628 157.437 26.5988 156.69C27.3348 155.944 28.2677 155.571 29.3976 155.571C30.0817 155.571 30.7037 155.737 31.2738 156.058C31.8439 156.39 32.2896 156.825 32.611 157.375L31.7506 157.872C31.5329 157.458 31.2219 157.136 30.7969 156.887C30.3719 156.639 29.9055 156.525 29.3976 156.525C28.5372 156.525 27.8427 156.804 27.2933 157.354C26.7543 157.903 26.4744 158.598 26.4744 159.427C26.4744 160.246 26.7439 160.94 27.2933 161.49C27.8323 162.039 28.5372 162.319 29.3976 162.319C29.9055 162.319 30.3719 162.195 30.7969 161.956C31.2219 161.708 31.5329 161.386 31.7506 160.982L32.611 161.469C32.3 162.018 31.8543 162.464 31.2841 162.796C30.714 163.128 30.0817 163.304 29.3976 163.304Z" fill="white"/>
<path d="M38.022 157.841H38.9445V163.169H38.022V162.257C37.5555 162.962 36.8921 163.314 36.011 163.314C35.2646 163.314 34.6323 163.045 34.1037 162.495C33.575 161.956 33.3159 161.293 33.3159 160.505C33.3159 159.728 33.575 159.064 34.1037 158.515C34.6323 157.976 35.2646 157.696 36.011 157.696C36.8921 157.696 37.5659 158.048 38.022 158.753V157.841ZM36.125 162.402C36.664 162.402 37.1201 162.215 37.4726 161.853C37.8354 161.49 38.0116 161.034 38.0116 160.495C38.0116 159.956 37.8354 159.5 37.4726 159.137C37.1098 158.774 36.664 158.587 36.125 158.587C35.5963 158.587 35.1402 158.774 34.7878 159.137C34.425 159.5 34.2488 159.956 34.2488 160.495C34.2488 161.034 34.425 161.49 34.7878 161.853C35.1506 162.226 35.5963 162.402 36.125 162.402Z" fill="white"/>
<path d="M41.2768 158.733C41.5774 158.069 42.1372 157.737 42.9353 157.737V158.701C42.4792 158.681 42.0957 158.805 41.764 159.064C41.4427 159.323 41.2768 159.748 41.2768 160.329V163.148H40.3542V157.82H41.2768V158.733Z" fill="white"/>
<path d="M47.9628 155.706H48.8854V163.159H47.9628V162.246C47.4963 162.951 46.8329 163.304 45.9518 163.304C45.2055 163.304 44.5732 163.034 44.0445 162.485C43.5159 161.946 43.2567 161.282 43.2567 160.495C43.2567 159.717 43.5159 159.054 44.0445 158.504C44.5732 157.965 45.2055 157.685 45.9518 157.685C46.8329 157.685 47.5067 158.038 47.9628 158.743V155.706ZM46.0762 162.402C46.6153 162.402 47.0713 162.215 47.4238 161.853C47.7866 161.49 47.9628 161.034 47.9628 160.495C47.9628 159.956 47.7866 159.499 47.4238 159.137C47.061 158.774 46.6153 158.587 46.0762 158.587C45.5476 158.587 45.0915 158.774 44.739 159.137C44.3762 159.499 44.2 159.956 44.2 160.495C44.2 161.034 44.3762 161.49 44.739 161.853C45.0915 162.226 45.5372 162.402 46.0762 162.402Z" fill="white"/>
<path d="M57.6652 155.706H58.65V163.159H57.6652V159.8H54.0476V163.159H53.0524V155.706H54.0476V158.867H57.6652V155.706Z" fill="white"/>
<path d="M64.6415 162.485C64.0921 163.024 63.4287 163.293 62.6512 163.293C61.8738 163.293 61.2104 163.024 60.661 162.485C60.122 161.946 59.8421 161.283 59.8421 160.495C59.8421 159.707 60.1116 159.043 60.661 158.504C61.2 157.965 61.8634 157.696 62.6512 157.696C63.439 157.696 64.0921 157.965 64.6415 158.504C65.1908 159.043 65.4604 159.707 65.4604 160.495C65.4604 161.283 65.1908 161.946 64.6415 162.485ZM62.6512 162.392C63.1799 162.392 63.636 162.215 63.9884 161.853C64.3512 161.49 64.5274 161.044 64.5274 160.505C64.5274 159.966 64.3512 159.51 63.9884 159.158C63.6256 158.795 63.1799 158.618 62.6512 158.618C62.1226 158.618 61.6872 158.795 61.3244 159.158C60.9616 159.52 60.7854 159.976 60.7854 160.505C60.7854 161.044 60.9616 161.5 61.3244 161.853C61.6872 162.215 62.1226 162.392 62.6512 162.392Z" fill="white"/>
<path d="M66.5591 163.159V155.384H67.4817V163.159H66.5591Z" fill="white"/>
<path d="M73.3073 155.706H74.2299V163.159H73.3073V162.246C72.8408 162.951 72.1774 163.304 71.2963 163.304C70.55 163.304 69.9177 163.034 69.389 162.485C68.8603 161.946 68.6012 161.282 68.6012 160.495C68.6012 159.717 68.8603 159.054 69.389 158.504C69.9177 157.965 70.55 157.685 71.2963 157.685C72.1774 157.685 72.8512 158.038 73.3073 158.743V155.706ZM71.4103 162.402C71.9494 162.402 72.4055 162.215 72.7579 161.853C73.1207 161.49 73.2969 161.034 73.2969 160.495C73.2969 159.956 73.1207 159.499 72.7579 159.137C72.3951 158.774 71.9494 158.587 71.4103 158.587C70.8817 158.587 70.4256 158.774 70.0731 159.137C69.7103 159.499 69.5341 159.956 69.5341 160.495C69.5341 161.034 69.7103 161.49 70.0731 161.853C70.436 162.226 70.8817 162.402 71.4103 162.402Z" fill="white"/>
<path d="M76.2927 160.92C76.386 161.397 76.6037 161.77 76.9457 162.029C77.2878 162.288 77.7128 162.423 78.2207 162.423C78.9256 162.423 79.4335 162.164 79.7549 161.645L80.5427 162.091C80.0244 162.889 79.247 163.293 78.2 163.293C77.35 163.293 76.6659 163.034 76.1372 162.495C75.6085 161.967 75.3494 161.293 75.3494 160.484C75.3494 159.686 75.6085 159.012 76.1268 158.484C76.6451 157.955 77.3189 157.686 78.1378 157.686C78.9153 157.686 79.5579 157.965 80.0451 158.515C80.5427 159.064 80.7811 159.728 80.7811 160.505C80.7811 160.64 80.7707 160.775 80.75 160.92H76.2927ZM78.1378 158.567C77.6403 158.567 77.2256 158.712 76.9043 158.992C76.5829 159.272 76.3756 159.645 76.3031 160.111H79.8585C79.7756 159.603 79.5787 159.22 79.2573 158.961C78.9256 158.701 78.5628 158.567 78.1378 158.567Z" fill="white"/>
<path d="M82.7713 158.733C83.0719 158.069 83.6317 157.737 84.4299 157.737V158.701C83.9738 158.681 83.5902 158.805 83.2585 159.064C82.9372 159.323 82.7713 159.748 82.7713 160.329V163.148H81.8488V157.82H82.7713V158.733Z" fill="white"/>
<path d="M90.6494 157.696C91.2713 157.696 91.7792 157.893 92.1524 158.287C92.5256 158.681 92.7122 159.22 92.7122 159.893V163.159H91.7896V159.945C91.7896 159.51 91.6756 159.178 91.4372 158.94C91.1988 158.701 90.8774 158.587 90.4731 158.587C90.0067 158.587 89.6335 158.733 89.3536 159.023C89.0738 159.313 88.9286 159.748 88.9286 160.35V163.169H88.0061V157.841H88.9286V158.608C89.3018 157.997 89.8823 157.696 90.6494 157.696Z" fill="white"/>
<path d="M98.4134 157.841H99.336V163.169H98.4134V162.257C97.9469 162.962 97.2835 163.314 96.4024 163.314C95.6561 163.314 95.0238 163.045 94.4951 162.495C93.9665 161.956 93.7073 161.293 93.7073 160.505C93.7073 159.728 93.9665 159.064 94.4951 158.515C95.0238 157.976 95.6561 157.696 96.4024 157.696C97.2835 157.696 97.9573 158.048 98.4134 158.753V157.841ZM96.5165 162.402C97.0555 162.402 97.5116 162.215 97.864 161.853C98.2268 161.49 98.403 161.034 98.403 160.495C98.403 159.956 98.2268 159.5 97.864 159.137C97.5012 158.774 97.0555 158.587 96.5165 158.587C95.9878 158.587 95.5317 158.774 95.1793 159.137C94.8165 159.5 94.6402 159.956 94.6402 160.495C94.6402 161.034 94.8165 161.49 95.1793 161.853C95.5421 162.226 95.9878 162.402 96.5165 162.402Z" fill="white"/>
<path d="M106.499 157.696C107.1 157.696 107.577 157.893 107.95 158.276C108.323 158.66 108.499 159.189 108.499 159.852V163.159H107.577V159.883C107.577 159.468 107.473 159.147 107.255 158.929C107.038 158.701 106.758 158.587 106.405 158.587C106.012 158.587 105.69 158.722 105.452 158.981C105.213 159.24 105.099 159.655 105.099 160.204V163.169H104.177V159.893C104.177 159.479 104.073 159.158 103.876 158.94C103.669 158.712 103.399 158.598 103.047 158.598C102.653 158.598 102.332 158.733 102.073 159.002C101.813 159.272 101.679 159.676 101.679 160.215V163.179H100.756V157.851H101.679V158.567C102.041 157.997 102.57 157.717 103.265 157.717C103.98 157.717 104.498 158.017 104.83 158.618C105.193 157.997 105.752 157.696 106.499 157.696Z" fill="white"/>
<path d="M110.438 160.92C110.531 161.397 110.749 161.77 111.091 162.029C111.433 162.288 111.858 162.423 112.366 162.423C113.071 162.423 113.579 162.164 113.9 161.645L114.688 162.091C114.17 162.889 113.392 163.293 112.345 163.293C111.495 163.293 110.811 163.034 110.282 162.495C109.754 161.967 109.495 161.293 109.495 160.484C109.495 159.686 109.754 159.012 110.272 158.484C110.79 157.955 111.464 157.686 112.283 157.686C113.06 157.686 113.703 157.965 114.19 158.515C114.688 159.064 114.926 159.728 114.926 160.505C114.926 160.64 114.916 160.775 114.895 160.92H110.438ZM112.283 158.567C111.785 158.567 111.371 158.712 111.049 158.992C110.728 159.272 110.521 159.645 110.448 160.111H113.993C113.91 159.603 113.713 159.22 113.392 158.961C113.081 158.701 112.708 158.567 112.283 158.567Z" fill="white"/>
<path d="M32.7561 173.867H35.0055V185.269H33.2951L28.4128 178.293V185.269H26.1634V173.867H27.8738L32.7561 180.812V173.867Z" fill="white"/>
<path d="M43.9616 184.253C43.122 185.082 42.1061 185.497 40.9037 185.497C39.7013 185.497 38.675 185.082 37.8458 184.253C37.0165 183.424 36.6019 182.408 36.6019 181.195C36.6019 179.993 37.0165 178.977 37.8458 178.137C38.675 177.308 39.6909 176.893 40.9037 176.893C42.1061 176.893 43.1324 177.308 43.9616 178.137C44.8013 178.967 45.2159 179.982 45.2159 181.195C45.2159 182.408 44.7909 183.424 43.9616 184.253ZM39.3177 182.812C39.7324 183.237 40.261 183.445 40.8933 183.445C41.5257 183.445 42.0543 183.237 42.4689 182.812C42.8939 182.387 43.1013 181.848 43.1013 181.195C43.1013 180.542 42.8939 180.003 42.4689 179.589C42.0439 179.164 41.5153 178.956 40.8933 178.956C40.2714 178.956 39.7427 179.164 39.3177 179.589C38.9031 180.014 38.6958 180.553 38.6958 181.195C38.6958 181.848 38.9031 182.387 39.3177 182.812Z" fill="white"/>
<path d="M55.6957 176.904C56.6287 176.904 57.375 177.204 57.9348 177.816C58.4945 178.427 58.7744 179.236 58.7744 180.262V185.279H56.6701V180.407C56.6701 179.92 56.5457 179.537 56.3073 179.267C56.0689 178.998 55.7268 178.863 55.3018 178.863C54.825 178.863 54.4518 179.018 54.1823 179.34C53.9128 179.661 53.7884 180.107 53.7884 180.708V185.29H51.6945V180.418C51.6945 179.931 51.5701 179.547 51.3317 179.277C51.0933 179.008 50.7512 178.873 50.3262 178.873C49.8598 178.873 49.4866 179.029 49.2067 179.35C48.9268 179.661 48.7921 180.117 48.7921 180.718V185.3H46.6878V177.152H48.7921V178.013C49.2793 177.287 50.036 176.924 51.0518 176.924C52.047 176.924 52.7933 177.318 53.2701 178.096C53.8195 177.287 54.6281 176.904 55.6957 176.904Z" fill="white"/>
<path d="M66.7561 177.132H68.8604V185.279H66.7561V184.315C66.1238 185.103 65.2427 185.507 64.1025 185.507C63.014 185.507 62.0811 185.093 61.3037 184.263C60.5262 183.434 60.1427 182.418 60.1427 181.206C60.1427 180.003 60.5262 178.987 61.3037 178.148C62.0811 177.318 63.014 176.904 64.1025 176.904C65.2427 176.904 66.1238 177.298 66.7561 178.096V177.132ZM62.8793 182.854C63.3043 183.279 63.8433 183.496 64.4964 183.496C65.1494 183.496 65.6884 183.279 66.1134 182.854C66.5384 182.429 66.7561 181.869 66.7561 181.195C66.7561 180.521 66.5384 179.972 66.1134 179.547C65.6884 179.122 65.1494 178.904 64.4964 178.904C63.8433 178.904 63.3043 179.122 62.8793 179.547C62.4543 179.972 62.247 180.532 62.247 181.195C62.247 181.869 62.4647 182.429 62.8793 182.854Z" fill="white"/>
<path d="M75.2976 176.904C76.189 176.904 76.925 177.204 77.5055 177.795C78.086 178.396 78.3762 179.215 78.3762 180.273V185.269H76.272V180.532C76.272 179.993 76.1268 179.578 75.8366 179.288C75.5464 178.998 75.1525 178.852 74.6653 178.852C74.1262 178.852 73.6909 179.018 73.3592 179.36C73.0378 179.702 72.872 180.2 72.872 180.874V185.269H70.7677V177.121H72.872V178.034C73.3799 177.277 74.1884 176.904 75.2976 176.904Z" fill="white"/>
<path d="M95.4903 173.867V185.269H93.2616V177.878L90.0482 183.165L89.7891 183.175L86.586 177.909V185.279H84.3366V173.877H86.6482L89.9134 179.257L93.1683 173.877H95.4903V173.867Z" fill="white"/>
<path d="M103.7 177.132H105.804V185.279H103.7V184.315C103.068 185.103 102.187 185.507 101.046 185.507C99.9579 185.507 99.025 185.093 98.2475 184.263C97.4701 183.434 97.0866 182.418 97.0866 181.206C97.0866 180.003 97.4701 178.987 98.2475 178.148C99.025 177.318 99.9579 176.904 101.046 176.904C102.187 176.904 103.068 177.298 103.7 178.096V177.132ZM99.8232 182.854C100.248 183.279 100.787 183.496 101.44 183.496C102.093 183.496 102.632 183.279 103.057 182.854C103.482 182.429 103.7 181.869 103.7 181.195C103.7 180.521 103.482 179.972 103.057 179.547C102.632 179.122 102.093 178.904 101.44 178.904C100.787 178.904 100.248 179.122 99.8232 179.547C99.3982 179.972 99.1908 180.532 99.1908 181.195C99.1908 181.869 99.3982 182.429 99.8232 182.854Z" fill="white"/>
<path d="M112.231 176.904C113.123 176.904 113.859 177.204 114.439 177.795C115.019 178.396 115.31 179.215 115.31 180.273V185.269H113.205V180.532C113.205 179.993 113.06 179.578 112.77 179.288C112.48 178.998 112.086 178.852 111.599 178.852C111.06 178.852 110.624 179.018 110.293 179.36C109.971 179.702 109.805 180.2 109.805 180.874V185.269H107.701V177.121H109.805V178.034C110.324 177.277 111.132 176.904 112.231 176.904Z" fill="white"/>
<path d="M119.57 183.3H123.188V185.269H116.761V183.87L120.192 179.091H116.916V177.121H123.022V178.521L119.57 183.3Z" fill="white"/>
<path d="M131.18 184.253C130.34 185.082 129.324 185.497 128.122 185.497C126.92 185.497 125.893 185.082 125.064 184.253C124.235 183.424 123.82 182.408 123.82 181.195C123.82 179.993 124.235 178.977 125.064 178.137C125.893 177.308 126.909 176.893 128.122 176.893C129.324 176.893 130.351 177.308 131.18 178.137C132.02 178.967 132.434 179.982 132.434 181.195C132.434 182.408 132.009 183.424 131.18 184.253ZM126.546 182.812C126.961 183.237 127.49 183.445 128.122 183.445C128.754 183.445 129.283 183.237 129.698 182.812C130.123 182.387 130.33 181.848 130.33 181.195C130.33 180.542 130.123 180.003 129.698 179.589C129.273 179.164 128.744 178.956 128.122 178.956C127.5 178.956 126.971 179.164 126.546 179.589C126.132 180.014 125.924 180.553 125.924 181.195C125.914 181.848 126.121 182.387 126.546 182.812Z" fill="white"/>
<path d="M140.851 184.253C140.012 185.082 138.996 185.497 137.793 185.497C136.591 185.497 135.565 185.082 134.735 184.253C133.906 183.424 133.491 182.408 133.491 181.195C133.491 179.993 133.906 178.977 134.735 178.137C135.565 177.308 136.58 176.893 137.793 176.893C138.996 176.893 140.022 177.308 140.851 178.137C141.691 178.967 142.105 179.982 142.105 181.195C142.105 182.408 141.691 183.424 140.851 184.253ZM136.218 182.812C136.632 183.237 137.161 183.445 137.793 183.445C138.426 183.445 138.954 183.237 139.369 182.812C139.794 182.387 140.001 181.848 140.001 181.195C140.001 180.542 139.794 180.003 139.369 179.589C138.944 179.164 138.415 178.956 137.793 178.956C137.171 178.956 136.643 179.164 136.218 179.589C135.803 180.014 135.596 180.553 135.596 181.195C135.596 181.848 135.803 182.387 136.218 182.812Z" fill="white"/>
<path d="M145.692 178.531C145.889 178.013 146.21 177.619 146.656 177.36C147.102 177.101 147.61 176.966 148.159 176.966V179.309C147.516 179.236 146.946 179.36 146.438 179.703C145.931 180.045 145.682 180.594 145.682 181.382V185.279H143.577V177.132H145.682V178.531H145.692Z" fill="white"/>
<path d="M255.674 162.226H259.136V163.159H254.689V155.706H259.084V156.638H255.674V158.929H258.815V159.852H255.674V162.226Z" fill="white"/>
<path d="M264.848 163.159H263.759L262.266 161.148L260.774 163.159H259.685L261.727 160.422L259.81 157.841H260.909L262.277 159.686L263.655 157.841H264.744L262.826 160.422L264.848 163.159Z" fill="white"/>
<path d="M268.652 157.696C269.398 157.696 270.03 157.965 270.559 158.515C271.088 159.054 271.347 159.717 271.347 160.505C271.347 161.282 271.088 161.946 270.559 162.495C270.03 163.034 269.398 163.314 268.652 163.314C267.771 163.314 267.097 162.962 266.641 162.257V165.304H265.718V157.851H266.641V158.764C267.097 158.048 267.771 157.696 268.652 157.696ZM268.538 162.402C269.066 162.402 269.512 162.215 269.875 161.853C270.238 161.49 270.414 161.034 270.414 160.495C270.414 159.956 270.238 159.5 269.875 159.137C269.512 158.774 269.066 158.587 268.538 158.587C267.999 158.587 267.543 158.774 267.19 159.137C266.827 159.5 266.651 159.956 266.651 160.495C266.651 161.034 266.827 161.49 267.19 161.853C267.543 162.226 267.999 162.402 268.538 162.402Z" fill="white"/>
<path d="M272.923 156.867C272.746 156.867 272.591 156.804 272.477 156.69C272.363 156.576 272.301 156.421 272.301 156.255C272.301 156.089 272.363 155.934 272.477 155.809C272.591 155.685 272.746 155.623 272.923 155.623C273.088 155.623 273.234 155.685 273.358 155.809C273.482 155.934 273.534 156.079 273.534 156.255C273.534 156.431 273.472 156.576 273.358 156.69C273.244 156.804 273.088 156.867 272.923 156.867ZM272.456 163.159V157.831H273.379V163.159H272.456Z" fill="white"/>
<path d="M275.721 158.733C276.022 158.069 276.582 157.737 277.38 157.737V158.701C276.924 158.681 276.54 158.805 276.209 159.064C275.887 159.323 275.721 159.748 275.721 160.329V163.148H274.799V157.82H275.721V158.733Z" fill="white"/>
<path d="M282.117 157.841H283.112L280.935 163.49C280.707 164.092 280.386 164.558 279.982 164.869C279.577 165.18 279.101 165.325 278.572 165.294V164.434C279.225 164.486 279.702 164.123 280.002 163.345L280.106 163.148L277.784 157.841H278.779L280.552 161.925L282.117 157.841Z" fill="white"/>
<path d="M289.549 155.706C290.565 155.706 291.405 156.068 292.079 156.784C292.752 157.499 293.084 158.39 293.084 159.427C293.084 160.474 292.752 161.355 292.079 162.07C291.405 162.796 290.565 163.148 289.549 163.148H286.647V155.695H289.549V155.706ZM289.549 162.226C290.306 162.226 290.928 161.956 291.415 161.428C291.902 160.899 292.141 160.235 292.141 159.437C292.141 158.639 291.902 157.976 291.415 157.447C290.928 156.918 290.316 156.649 289.549 156.649H287.632V162.226H289.549Z" fill="white"/>
<path d="M298.599 157.841H299.521V163.169H298.599V162.257C298.132 162.962 297.469 163.314 296.588 163.314C295.841 163.314 295.209 163.045 294.68 162.495C294.152 161.956 293.893 161.293 293.893 160.505C293.893 159.728 294.152 159.064 294.68 158.515C295.209 157.976 295.841 157.696 296.588 157.696C297.469 157.696 298.143 158.048 298.599 158.753V157.841ZM296.712 162.402C297.251 162.402 297.707 162.215 298.06 161.853C298.423 161.49 298.599 161.034 298.599 160.495C298.599 159.956 298.423 159.5 298.06 159.137C297.697 158.774 297.251 158.587 296.712 158.587C296.184 158.587 295.727 158.774 295.375 159.137C295.012 159.5 294.836 159.956 294.836 160.495C294.836 161.034 295.012 161.49 295.375 161.853C295.727 162.226 296.173 162.402 296.712 162.402Z" fill="white"/>
<path d="M303.834 158.732H302.413V161.614C302.413 161.873 302.465 162.06 302.569 162.174C302.673 162.288 302.828 162.34 303.046 162.34C303.263 162.34 303.523 162.34 303.834 162.329V163.159C303.025 163.262 302.434 163.2 302.061 162.962C301.688 162.723 301.501 162.278 301.501 161.614V158.732H300.444V157.841H301.501V156.628L302.424 156.348V157.841H303.844V158.732H303.834Z" fill="white"/>
<path d="M305.316 160.92C305.409 161.397 305.627 161.77 305.969 162.029C306.311 162.288 306.736 162.423 307.244 162.423C307.949 162.423 308.457 162.164 308.778 161.645L309.566 162.091C309.048 162.889 308.27 163.293 307.223 163.293C306.373 163.293 305.689 163.034 305.16 162.495C304.632 161.967 304.373 161.293 304.373 160.484C304.373 159.686 304.632 159.012 305.15 158.484C305.668 157.955 306.342 157.686 307.161 157.686C307.938 157.686 308.581 157.965 309.068 158.515C309.566 159.064 309.804 159.728 309.804 160.505C309.804 160.64 309.794 160.775 309.773 160.92H305.316ZM307.151 158.567C306.653 158.567 306.238 158.712 305.917 158.992C305.596 159.272 305.388 159.645 305.316 160.111H308.871C308.788 159.603 308.591 159.22 308.27 158.961C307.949 158.701 307.576 158.567 307.151 158.567Z" fill="white"/>
<path d="M262.256 183.869C261.489 184.947 260.401 185.486 259.012 185.486C257.623 185.486 256.545 184.947 255.767 183.869C255 182.791 254.606 181.361 254.606 179.568C254.606 177.774 254.99 176.344 255.767 175.266C256.534 174.188 257.623 173.649 259.012 173.649C260.401 173.649 261.479 174.188 262.256 175.266C263.023 176.344 263.417 177.774 263.417 179.568C263.417 181.361 263.034 182.791 262.256 183.869ZM256.887 182.843C257.384 183.61 258.099 184.004 259.022 184.004C259.945 184.004 260.66 183.621 261.168 182.843C261.676 182.076 261.924 180.977 261.924 179.568C261.924 178.158 261.676 177.059 261.168 176.282C260.66 175.504 259.945 175.121 259.022 175.121C258.099 175.121 257.384 175.504 256.887 176.282C256.389 177.049 256.14 178.147 256.14 179.568C256.14 180.977 256.389 182.076 256.887 182.843Z" fill="white"/>
<path d="M264.526 185.269V184.035L268.548 179.93C269.626 178.852 270.165 177.93 270.165 177.163C270.165 176.52 269.968 176.022 269.574 175.66C269.18 175.297 268.704 175.121 268.144 175.121C267.066 175.121 266.288 175.629 265.801 176.655L264.526 175.908C264.889 175.172 265.387 174.613 266.019 174.229C266.651 173.846 267.356 173.659 268.134 173.659C269.087 173.659 269.916 173.97 270.621 174.602C271.326 175.235 271.679 176.074 271.679 177.142C271.679 178.293 271.005 179.547 269.647 180.905L266.734 183.797H271.886V185.258H264.526V185.269Z" fill="white"/>
<path d="M273.99 186.876L273.14 186.896L279.66 172.26L280.51 172.239L273.99 186.876Z" fill="white"/>
<path d="M286.263 178.541C287.134 178.707 287.849 179.08 288.399 179.671C288.959 180.262 289.228 180.998 289.228 181.9C289.228 183.009 288.845 183.88 288.088 184.522C287.331 185.165 286.409 185.486 285.32 185.486C284.449 185.486 283.682 185.29 283.009 184.896C282.335 184.502 281.858 183.932 281.578 183.175L282.853 182.429C283.185 183.486 284.014 184.004 285.33 184.004C286.035 184.004 286.616 183.818 287.062 183.455C287.507 183.092 287.725 182.574 287.725 181.91C287.725 181.247 287.507 180.729 287.062 180.355C286.616 179.982 286.035 179.796 285.33 179.796H284.937L284.335 178.863L286.979 175.297H281.91V173.877H288.751L288.741 175.204L286.263 178.541Z" fill="white"/>
<path d="M298.205 183.869C297.438 184.947 296.349 185.486 294.96 185.486C293.571 185.486 292.493 184.947 291.716 183.869C290.949 182.791 290.555 181.361 290.555 179.568C290.555 177.774 290.938 176.344 291.716 175.266C292.483 174.188 293.571 173.649 294.96 173.649C296.349 173.649 297.427 174.188 298.205 175.266C298.972 176.344 299.366 177.774 299.366 179.568C299.366 181.361 298.982 182.791 298.205 183.869ZM292.835 182.843C293.333 183.61 294.048 184.004 294.971 184.004C295.893 184.004 296.609 183.621 297.116 182.843C297.624 182.076 297.873 180.977 297.873 179.568C297.873 178.158 297.624 177.059 297.116 176.282C296.609 175.504 295.893 175.121 294.971 175.121C294.048 175.121 293.333 175.504 292.835 176.282C292.338 177.049 292.089 178.147 292.089 179.568C292.079 180.977 292.327 182.076 292.835 182.843Z" fill="white"/>
<path d="M321.196 34.083H317.734C316.656 34.083 315.858 34.3836 315.381 35.4409L308.726 50.5336H313.432C313.432 50.5336 314.21 48.5019 314.376 48.0665H320.118C320.253 48.647 320.657 50.5336 320.657 50.5336H324.824L321.196 34.083ZM315.671 44.6976C316.045 43.7543 317.444 40.0952 317.444 40.0952C317.444 40.0848 317.827 39.1312 318.045 38.53L318.346 39.9501C318.346 39.9501 319.206 43.8684 319.382 44.708H315.671V44.6976Z" fill="white"/>
<path d="M302.745 38.6439C302.735 39.4214 303.699 39.9293 305.274 40.686C307.855 41.8677 309.058 43.2775 309.037 45.1641C309.006 48.5744 305.948 50.7824 301.221 50.7824C299.21 50.7616 297.272 50.3574 296.225 49.9013L296.857 46.211L297.438 46.4805C298.899 47.0921 299.863 47.3409 301.657 47.3409C302.942 47.3409 304.321 46.833 304.331 45.7342C304.341 45.0086 303.751 44.4903 302.009 43.6817C300.299 42.8939 298.049 41.5775 298.07 39.2141C298.091 36.0214 301.221 33.7823 305.648 33.7823C307.389 33.7823 308.788 34.1452 309.669 34.4769L309.058 38.0427L308.654 37.8561C307.824 37.5244 306.757 37.2031 305.295 37.2238C303.564 37.2238 302.745 37.9598 302.745 38.6439Z" fill="white"/>
<path d="M296.225 34.0726L293.416 50.5232H288.938L291.737 34.0726H296.225Z" fill="white"/>
<path d="M280.116 42.5415C278.624 38.7372 275.048 35.5757 269.626 34.2592L269.688 33.9275H276.644C277.587 33.9586 278.344 34.2592 278.603 35.2647L280.116 42.5415Z" fill="white"/>
<path d="M289.933 34.083L282.863 50.5129H278.126L274.115 36.7989C276.996 38.644 279.453 41.5775 280.324 43.6196L280.801 45.3196L285.196 34.0934H289.933V34.083Z" fill="white"/>
<path d="M58.6085 142.479H30.6207C28.8274 142.479 27.3555 141.007 27.3555 139.213V118.492C27.3555 116.699 28.8274 115.227 30.6207 115.227H58.6085C60.4018 115.227 61.8738 116.699 61.8738 118.492V139.213C61.8738 141.007 60.4018 142.479 58.6085 142.479Z" fill="#F6C859"/>
<path d="M40.6342 138.84C40.489 138.84 40.3439 138.757 40.2817 138.623C40.1781 138.426 40.261 138.187 40.4579 138.083C41.0384 137.783 41.8262 137.233 42.2823 136.269C42.8628 135.046 42.7073 133.719 42.4689 133.605C42.4067 133.574 42.1683 133.699 42.0232 133.771C41.65 133.968 41.1214 134.227 40.5201 134.02C39.9293 133.813 39.639 133.284 39.5043 133.035C38.6025 131.377 38.3226 127.065 39.2762 124.919C39.5976 124.204 40.0226 123.789 40.5616 123.665C41.111 123.54 41.5567 123.768 41.9092 123.955C42.1994 124.11 42.3549 124.173 42.4378 124.121C42.811 123.893 42.8006 122.524 42.2823 121.436C41.8262 120.472 41.0384 119.923 40.4579 119.622C40.261 119.518 40.1884 119.28 40.2817 119.083C40.3854 118.886 40.6238 118.813 40.8208 118.907C41.5049 119.259 42.4482 119.923 42.9976 121.094C43.547 122.244 43.8061 124.224 42.8421 124.805C42.3549 125.095 41.8988 124.857 41.5256 124.67C41.2457 124.525 40.9866 124.39 40.7275 124.452C40.375 124.535 40.1366 124.94 39.9915 125.261C39.1519 127.127 39.3903 131.211 40.1884 132.673C40.3232 132.921 40.489 133.191 40.7689 133.284C41.0384 133.377 41.2872 133.263 41.65 133.077C42.0025 132.901 42.3964 132.693 42.811 132.901C43.7025 133.336 43.6506 135.264 42.9976 136.632C42.4482 137.793 41.5049 138.467 40.8208 138.819C40.7586 138.83 40.6964 138.84 40.6342 138.84Z" fill="#7D662D"/>
<path d="M39.4421 125.644H32.2482C32.0305 125.644 31.8439 125.468 31.8439 125.24C31.8439 125.012 32.0201 124.836 32.2482 124.836H39.4421C39.6598 124.836 39.8463 125.012 39.8463 125.24C39.8463 125.468 39.6598 125.644 39.4421 125.644Z" fill="#7D662D"/>
<path d="M39.4421 132.849H32.2482C32.0305 132.849 31.8439 132.672 31.8439 132.444C31.8439 132.216 32.0201 132.04 32.2482 132.04H39.4421C39.6598 132.04 39.8463 132.216 39.8463 132.444C39.8463 132.672 39.6598 132.849 39.4421 132.849Z" fill="#7D662D"/>
<path d="M49.0305 138.84C48.9683 138.84 48.9061 138.83 48.8439 138.799C48.1598 138.446 47.2165 137.783 46.6671 136.611C46.014 135.243 45.9622 133.315 46.8537 132.88C47.2683 132.683 47.6622 132.88 48.0146 133.056C48.3775 133.243 48.6262 133.357 48.8957 133.263C49.1964 133.16 49.3726 132.838 49.4762 132.652C50.2744 131.19 50.5128 127.116 49.6732 125.24C49.5281 124.919 49.2793 124.515 48.9372 124.432C48.7195 124.38 48.5848 124.162 48.6366 123.955C48.6884 123.737 48.9061 123.613 49.1134 123.654C49.6525 123.779 50.0775 124.204 50.3988 124.919C51.3525 127.065 51.0829 131.377 50.1707 133.035C50.036 133.284 49.7457 133.813 49.1549 134.02C48.5537 134.227 48.025 133.968 47.6518 133.771C47.5067 133.699 47.2579 133.574 47.2061 133.605C46.9677 133.719 46.8122 135.046 47.3927 136.269C47.8488 137.233 48.6366 137.783 49.2171 138.083C49.414 138.187 49.4866 138.426 49.3933 138.622C49.3207 138.757 49.1756 138.84 49.0305 138.84Z" fill="#7D662D"/>
<path d="M47.4341 124.048C47.2683 124.048 47.1128 123.945 47.0506 123.779C46.1902 121.208 48.2012 119.228 48.8439 118.896C49.0408 118.793 49.2792 118.876 49.3829 119.073C49.4866 119.27 49.4036 119.508 49.2067 119.612C48.9164 119.757 47.0713 121.343 47.8073 123.53C47.8799 123.737 47.7658 123.965 47.5585 124.038C47.5171 124.038 47.4756 124.048 47.4341 124.048Z" fill="#7D662D"/>
<path d="M57.4268 125.644H50.2329C50.0153 125.644 49.8287 125.468 49.8287 125.24C49.8287 125.012 50.0049 124.836 50.2329 124.836H57.4268C57.6445 124.836 57.8311 125.012 57.8311 125.24C57.8311 125.468 57.6549 125.644 57.4268 125.644Z" fill="#7D662D"/>
<path d="M57.4268 132.849H50.2329C50.0153 132.849 49.8287 132.672 49.8287 132.444C49.8287 132.216 50.0049 132.04 50.2329 132.04H57.4268C57.6445 132.04 57.8311 132.216 57.8311 132.444C57.8311 132.672 57.6549 132.849 57.4268 132.849Z" fill="#7D662D"/>
<path fill-rule="evenodd" clip-rule="evenodd" d="M36.163 49.9949C40.8636 49.9949 44.6742 46.1843 44.6742 41.4837C44.6742 36.7831 40.8636 32.9725 36.163 32.9725C31.4624 32.9725 27.6518 36.7831 27.6518 41.4837C27.6518 46.1843 31.4624 49.9949 36.163 49.9949ZM36.163 46.4971C38.9319 46.4971 41.1765 44.2525 41.1765 41.4837C41.1765 38.7148 38.9319 36.4702 36.163 36.4702C33.3942 36.4702 31.1496 38.7148 31.1496 41.4837C31.1496 44.2525 33.3942 46.4971 36.163 46.4971Z" fill="#3F83A9"/>
<path fill-rule="evenodd" clip-rule="evenodd" d="M54.5703 49.9664C59.2709 49.9664 63.0815 46.1558 63.0815 41.4552C63.0815 36.7546 59.2709 32.944 54.5703 32.944C49.8697 32.944 46.0591 36.7546 46.0591 41.4552C46.0591 46.1558 49.8697 49.9664 54.5703 49.9664ZM54.5703 46.4685C57.3391 46.4685 59.5837 44.2239 59.5837 41.4551C59.5837 38.6862 57.3391 36.4416 54.5703 36.4416C51.8014 36.4416 49.5568 38.6862 49.5568 41.4551C49.5568 44.2239 51.8014 46.4685 54.5703 46.4685Z" fill="#3F83A9"/>
<path fill-rule="evenodd" clip-rule="evenodd" d="M92.5474 49.9664C97.248 49.9664 101.059 46.1558 101.059 41.4552C101.059 36.7546 97.248 32.944 92.5474 32.944C87.8468 32.944 84.0362 36.7546 84.0362 41.4552C84.0362 46.1558 87.8468 49.9664 92.5474 49.9664ZM92.5373 46.4586C95.3061 46.4586 97.5507 44.214 97.5507 41.4452C97.5507 38.6763 95.3061 36.4317 92.5373 36.4317C89.7684 36.4317 87.5238 38.6763 87.5238 41.4452C87.5238 44.214 89.7684 46.4586 92.5373 46.4586Z" fill="#3F83A9"/>
<rect x="41.1765" y="23.0621" width="3.49776" height="18.4215" fill="#3F83A9"/>
<rect x="64.4663" y="29.4562" width="3.48769" height="20.5386" fill="#3F83A9"/>
<rect x="63.11" y="34.494" width="11.8194" height="3.48769" fill="#3F83A9"/>
<rect x="74.9294" y="29.4562" width="3.48769" height="20.5386" fill="#3F83A9"/>
<rect x="74.9294" y="34.494" width="9.10675" height="3.48769" fill="#3F83A9"/>
<path fill-rule="evenodd" clip-rule="evenodd" d="M114.581 49.8215C119.252 49.8215 123.038 46.0354 123.038 41.3651C123.038 36.6948 119.252 32.9087 114.581 32.9087C109.911 32.9087 106.125 36.6948 106.125 41.3651C106.125 46.0354 109.911 49.8215 114.581 49.8215ZM114.581 46.3463C117.332 46.3463 119.562 44.1161 119.562 41.3651C119.562 38.6141 117.332 36.3839 114.581 36.3839C111.83 36.3839 109.6 38.6141 109.6 41.3651C109.6 44.1161 111.83 46.3463 114.581 46.3463Z" fill="#3F83A9"/>
<path fill-rule="evenodd" clip-rule="evenodd" d="M132.87 49.7932C137.54 49.7932 141.326 46.0071 141.326 41.3368C141.326 36.6664 137.54 32.8804 132.87 32.8804C128.2 32.8804 124.414 36.6664 124.414 41.3368C124.414 46.0071 128.2 49.7932 132.87 49.7932ZM132.87 46.3179C135.621 46.3179 137.851 44.0877 137.851 41.3367C137.851 38.5857 135.621 36.3555 132.87 36.3555C130.119 36.3555 127.889 38.5857 127.889 41.3367C127.889 44.0877 130.119 46.3179 132.87 46.3179Z" fill="#3F83A9"/>
<rect x="106.125" y="23.0621" width="3.47524" height="18.3029" fill="#3F83A9"/>
<rect x="137.742" y="40.2366" width="3.51296" height="9.75823" fill="#3F83A9"/>
<rect x="162.332" y="29.3074" width="3.46524" height="20.4064" fill="#3F83A9"/>
<rect x="163.113" y="39.6031" width="9.27186" height="3.46612" transform="rotate(-35.1043 163.113 39.6031)" fill="#3F83A9"/>
<rect x="171.7" y="46.8722" width="1.95165" height="2.7323" fill="#3F83A9"/>
<path d="M170.549 34.7646C170.549 34.4885 170.773 34.2646 171.049 34.2646H172.695V37.1141H170.549V34.7646Z" fill="#3F83A9"/>
<path fill-rule="evenodd" clip-rule="evenodd" d="M173.652 46.7176L165.128 40.627L163.113 43.4471L171.72 49.5974L173.652 46.8942V46.7176Z" fill="#3F83A9"/>
<path fill-rule="evenodd" clip-rule="evenodd" d="M159.266 42.3846C159.314 42.0221 159.338 41.6523 159.338 41.2768C159.338 36.6065 155.552 32.8204 150.882 32.8204C146.564 32.8204 143.002 36.057 142.489 40.2366H142.425V41.2619L142.425 41.2768L142.425 41.2918V49.9948H145.938L145.938 43.9838C145.938 43.5401 145.997 43.1101 146.107 42.7012C145.973 42.2499 145.901 41.7717 145.901 41.2767C145.901 38.5257 148.131 36.2956 150.882 36.2956C153.633 36.2956 155.863 38.5257 155.863 41.2767C155.863 41.8044 155.781 42.313 155.629 42.7903C155.724 43.1724 155.775 43.5722 155.775 43.9838V49.935H159.266V42.3846Z" fill="#3F83A9"/>
<defs>
<linearGradient id="paint0_linear_3_306" x1="38.242" y1="247.473" x2="311.681" y2="-25.9669" gradientUnits="userSpaceOnUse">
<stop stop-color="#1B1464"/>
<stop offset="1" stop-color="#83EFFF"/>
</linearGradient>
<linearGradient id="paint1_linear_3_306" x1="232.73" y1="112.485" x2="341.431" y2="3.78344" gradientUnits="userSpaceOnUse">
<stop stop-color="#83EFFF"/>
<stop offset="1" stop-color="#1B1464"/>
</linearGradient>
<linearGradient id="paint2_linear_3_306" x1="59.9133" y1="269.14" x2="305.377" y2="23.6761" gradientUnits="userSpaceOnUse">
<stop stop-color="#1B1464"/>
<stop offset="1" stop-color="#83EFFF"/>
</linearGradient>
<linearGradient id="paint3_linear_3_306" x1="-12.1185" y1="90.2302" x2="92.9518" y2="-14.8401" gradientUnits="userSpaceOnUse">
<stop stop-color="#1B1464"/>
<stop offset="1" stop-color="#83EFFF"/>
</linearGradient>
<linearGradient id="paint4_linear_3_306" x1="149.361" y1="258.296" x2="222.95" y2="184.706" gradientUnits="userSpaceOnUse">
<stop stop-color="#02B6FD"/>
<stop offset="1" stop-color="#83EFFF"/>
</linearGradient>
<linearGradient id="paint5_linear_3_306" x1="64.7239" y1="273.954" x2="245.244" y2="93.4347" gradientUnits="userSpaceOnUse">
<stop stop-color="#1B1464"/>
<stop offset="1" stop-color="#83EFFF"/>
</linearGradient>
<linearGradient id="paint6_linear_3_306" x1="38.242" y1="247.473" x2="311.681" y2="-25.9669" gradientUnits="userSpaceOnUse">
<stop stop-color="#02CAFD"/>
<stop offset="1" stop-color="#83F8A6"/>
</linearGradient>
</defs>
</svg>
