<svg width="379" height="139" viewBox="0 0 379 139" fill="none" xmlns="http://www.w3.org/2000/svg">
<path fill-rule="evenodd" clip-rule="evenodd" d="M43.9264 139C68.1863 139 87.8528 119.333 87.8528 95.0736C87.8528 70.8137 68.1863 51.1472 43.9264 51.1472C19.6665 51.1472 0 70.8137 0 95.0736C0 119.333 19.6665 139 43.9264 139ZM43.9264 120.948C58.2165 120.948 69.8009 109.364 69.8009 95.0736C69.8009 80.7835 58.2165 69.1991 43.9264 69.1991C29.6363 69.1991 18.0519 80.7835 18.0519 95.0736C18.0519 109.364 29.6363 120.948 43.9264 120.948Z" fill="#3F83A9"/>
<path fill-rule="evenodd" clip-rule="evenodd" d="M138.926 138.853C163.186 138.853 182.853 119.186 182.853 94.9264C182.853 70.6665 163.186 51 138.926 51C114.667 51 95 70.6665 95 94.9264C95 119.186 114.667 138.853 138.926 138.853ZM138.926 120.801C153.216 120.801 164.801 109.216 164.801 94.9264C164.801 80.6363 153.216 69.0519 138.926 69.0519C124.636 69.0519 113.052 80.6363 113.052 94.9264C113.052 109.216 124.636 120.801 138.926 120.801Z" fill="#3F83A9"/>
<path fill-rule="evenodd" clip-rule="evenodd" d="M334.926 138.853C359.186 138.853 378.853 119.186 378.853 94.9264C378.853 70.6665 359.186 51 334.926 51C310.667 51 291 70.6665 291 94.9264C291 119.186 310.667 138.853 334.926 138.853ZM334.874 120.749C349.165 120.749 360.749 109.165 360.749 94.8745C360.749 80.5844 349.165 69 334.874 69C320.584 69 309 80.5844 309 94.8745C309 109.165 320.584 120.749 334.874 120.749Z" fill="#3F83A9"/>
<rect x="69.8008" width="18.0519" height="95.0736" fill="#3F83A9"/>
<rect x="190" y="33" width="18" height="106" fill="#3F83A9"/>
<rect x="183" y="59" width="61" height="18" fill="#3F83A9"/>
<rect x="244" y="33" width="18" height="106" fill="#3F83A9"/>
<rect x="244" y="59" width="47" height="18" fill="#3F83A9"/>
</svg>
