<svg width="754" height="139" viewBox="0 0 754 139" fill="none" xmlns="http://www.w3.org/2000/svg">
<path fill-rule="evenodd" clip-rule="evenodd" d="M43.9265 139C68.1864 139 87.8529 119.333 87.8529 95.0736C87.8529 70.8137 68.1864 51.1472 43.9265 51.1472C19.6666 51.1472 6.10352e-05 70.8137 6.10352e-05 95.0736C6.10352e-05 119.333 19.6666 139 43.9265 139ZM43.9265 120.948C58.2165 120.948 69.8009 109.364 69.8009 95.0736C69.8009 80.7835 58.2165 69.1991 43.9265 69.1991C29.6364 69.1991 18.052 80.7835 18.052 95.0736C18.052 109.364 29.6364 120.948 43.9265 120.948Z" fill="#3F83A9"/>
<path fill-rule="evenodd" clip-rule="evenodd" d="M138.926 138.853C163.186 138.853 182.853 119.186 182.853 94.9264C182.853 70.6665 163.186 51 138.926 51C114.667 51 95.0001 70.6665 95.0001 94.9264C95.0001 119.186 114.667 138.853 138.926 138.853ZM138.926 120.801C153.217 120.801 164.801 109.216 164.801 94.9264C164.801 80.6363 153.217 69.0519 138.926 69.0519C124.636 69.0519 113.052 80.6363 113.052 94.9264C113.052 109.216 124.636 120.801 138.926 120.801Z" fill="#3F83A9"/>
<path fill-rule="evenodd" clip-rule="evenodd" d="M334.926 138.853C359.186 138.853 378.853 119.186 378.853 94.9264C378.853 70.6665 359.186 51 334.926 51C310.667 51 291 70.6665 291 94.9264C291 119.186 310.667 138.853 334.926 138.853ZM334.875 120.749C349.165 120.749 360.749 109.165 360.749 94.8745C360.749 80.5844 349.165 69 334.875 69C320.584 69 309 80.5844 309 94.8745C309 109.165 320.584 120.749 334.875 120.749Z" fill="#3F83A9"/>
<rect x="69.8009" width="18.0519" height="95.0736" fill="#3F83A9"/>
<rect x="190" y="33" width="18" height="106" fill="#3F83A9"/>
<rect x="183" y="59" width="61" height="18" fill="#3F83A9"/>
<rect x="244" y="33" width="18" height="106" fill="#3F83A9"/>
<rect x="244" y="59" width="47" height="18" fill="#3F83A9"/>
<path fill-rule="evenodd" clip-rule="evenodd" d="M448.644 138.105C472.747 138.105 492.287 118.565 492.287 94.4615C492.287 70.3578 472.747 50.8179 448.644 50.8179C424.54 50.8179 405 70.3578 405 94.4615C405 118.565 424.54 138.105 448.644 138.105ZM448.644 120.169C462.842 120.169 474.351 108.66 474.351 94.4615C474.351 80.2634 462.842 68.7536 448.644 68.7536C434.446 68.7536 422.936 80.2634 422.936 94.4615C422.936 108.66 434.446 120.169 448.644 120.169Z" fill="#3F83A9"/>
<path fill-rule="evenodd" clip-rule="evenodd" d="M543.032 137.959C567.136 137.959 586.675 118.419 586.675 94.3153C586.675 70.2116 567.136 50.6717 543.032 50.6717C518.928 50.6717 499.388 70.2116 499.388 94.3153C499.388 118.419 518.928 137.959 543.032 137.959ZM543.032 120.023C557.23 120.023 568.74 108.513 568.74 94.3152C568.74 80.1172 557.23 68.6073 543.032 68.6073C528.834 68.6073 517.324 80.1172 517.324 94.3152C517.324 108.513 528.834 120.023 543.032 120.023Z" fill="#3F83A9"/>
<rect x="405" width="17.9357" height="94.4615" fill="#3F83A9"/>
<rect x="568.174" y="88.6377" width="18.1304" height="50.3623" fill="#3F83A9"/>
<rect x="695.087" y="32.2319" width="17.8841" height="105.318" fill="#3F83A9"/>
<rect x="699.116" y="85.3675" width="47.8521" height="17.8887" transform="rotate(-35.1043 699.116 85.3675)" fill="#3F83A9"/>
<rect x="743.435" y="122.884" width="10.0725" height="14.1014" fill="#3F83A9"/>
<path d="M737.492 58.316C737.492 58.0398 737.716 57.816 737.992 57.816H748.572V72.5218H737.492V58.316Z" fill="#3F83A9"/>
<path fill-rule="evenodd" clip-rule="evenodd" d="M753.507 122.086L709.516 90.6522L699.116 105.207L743.538 136.949L753.507 122.998V122.086Z" fill="#3F83A9"/>
<path fill-rule="evenodd" clip-rule="evenodd" d="M679.264 99.7235C679.509 97.8523 679.635 95.9439 679.635 94.0059C679.635 69.9022 660.095 50.3623 635.992 50.3623C613.705 50.3623 595.321 67.0666 592.675 88.6377H592.348V139H610.478L610.478 97.1855C610.35 96.1436 610.284 95.0825 610.284 94.0059C610.284 92.9293 610.35 91.8681 610.478 90.8262V88.5942C610.478 87.0061 611.095 85.562 612.103 84.4887C615.885 75.0021 625.156 68.298 635.991 68.298C647.051 68.298 656.48 75.2822 660.108 85.0808C660.822 86.0683 661.243 87.2821 661.243 88.5942V89.1611C661.543 90.7301 661.699 92.3497 661.699 94.0059C661.699 95.662 661.543 97.2816 661.243 98.8506V138.691H679.264V99.7235Z" fill="#3F83A9"/>
</svg>
