<svg width="379" height="246" viewBox="0 0 379 246" fill="none" xmlns="http://www.w3.org/2000/svg">
<path fill-rule="evenodd" clip-rule="evenodd" d="M43.9264 139C68.1863 139 87.8528 119.333 87.8528 95.0736C87.8528 70.8137 68.1863 51.1472 43.9264 51.1472C19.6665 51.1472 0 70.8137 0 95.0736C0 119.333 19.6665 139 43.9264 139ZM43.9264 120.948C58.2165 120.948 69.8009 109.364 69.8009 95.0736C69.8009 80.7835 58.2165 69.1991 43.9264 69.1991C29.6363 69.1991 18.0519 80.7835 18.0519 95.0736C18.0519 109.364 29.6363 120.948 43.9264 120.948Z" fill="#3F83A9"/>
<path fill-rule="evenodd" clip-rule="evenodd" d="M138.926 138.853C163.186 138.853 182.853 119.186 182.853 94.9264C182.853 70.6665 163.186 51 138.926 51C114.667 51 95 70.6665 95 94.9264C95 119.186 114.667 138.853 138.926 138.853ZM138.926 120.801C153.216 120.801 164.801 109.216 164.801 94.9264C164.801 80.6363 153.216 69.0519 138.926 69.0519C124.636 69.0519 113.052 80.6363 113.052 94.9264C113.052 109.216 124.636 120.801 138.926 120.801Z" fill="#3F83A9"/>
<path fill-rule="evenodd" clip-rule="evenodd" d="M334.926 138.853C359.186 138.853 378.853 119.186 378.853 94.9264C378.853 70.6665 359.186 51 334.926 51C310.667 51 291 70.6665 291 94.9264C291 119.186 310.667 138.853 334.926 138.853ZM334.874 120.749C349.165 120.749 360.749 109.165 360.749 94.8745C360.749 80.5844 349.165 69 334.874 69C320.584 69 309 80.5844 309 94.8745C309 109.165 320.584 120.749 334.874 120.749Z" fill="#3F83A9"/>
<rect x="69.8008" width="18.0519" height="95.0736" fill="#3F83A9"/>
<rect x="190" y="33" width="18" height="106" fill="#3F83A9"/>
<rect x="183" y="59" width="61" height="18" fill="#3F83A9"/>
<rect x="244" y="33" width="18" height="106" fill="#3F83A9"/>
<rect x="244" y="59" width="47" height="18" fill="#3F83A9"/>
<path fill-rule="evenodd" clip-rule="evenodd" d="M92.1423 245.382C108.789 245.382 122.285 231.887 122.285 215.24C122.285 198.592 108.789 185.097 92.1423 185.097C75.4952 185.097 62 198.592 62 215.24C62 231.887 75.4952 245.382 92.1423 245.382ZM92.1423 232.995C101.948 232.995 109.897 225.045 109.897 215.24C109.897 205.434 101.948 197.485 92.1423 197.485C82.3365 197.485 74.3873 205.434 74.3873 215.24C74.3873 225.045 82.3365 232.995 92.1423 232.995Z" fill="#3F83A9"/>
<path fill-rule="evenodd" clip-rule="evenodd" d="M157.331 245.281C173.979 245.281 187.474 231.786 187.474 215.139C187.474 198.491 173.979 184.996 157.331 184.996C140.684 184.996 127.189 198.491 127.189 215.139C127.189 231.786 140.684 245.281 157.331 245.281ZM157.331 232.894C167.137 232.894 175.087 224.944 175.087 215.139C175.087 205.333 167.137 197.383 157.331 197.383C147.526 197.383 139.576 205.333 139.576 215.139C139.576 224.944 147.526 232.894 157.331 232.894Z" fill="#3F83A9"/>
<rect x="62" y="150" width="12.3873" height="65.2396" fill="#3F83A9"/>
<rect x="174.696" y="211.217" width="12.5217" height="34.7826" fill="#3F83A9"/>
<rect x="262.348" y="172.261" width="12.3516" height="72.7373" fill="#3F83A9"/>
<rect x="265.13" y="208.959" width="33.049" height="12.3548" transform="rotate(-35.1043 265.13 208.959)" fill="#3F83A9"/>
<rect x="295.739" y="234.87" width="6.95652" height="9.73913" fill="#3F83A9"/>
<path d="M291.635 190.43C291.635 190.154 291.859 189.93 292.135 189.93H299.287V200.087H291.635V190.43Z" fill="#3F83A9"/>
<path fill-rule="evenodd" clip-rule="evenodd" d="M302.696 234.318L272.313 212.609L265.13 222.661L295.811 244.583L302.696 234.948V234.318Z" fill="#3F83A9"/>
<path fill-rule="evenodd" clip-rule="evenodd" d="M251.42 218.874C251.589 217.582 251.676 216.263 251.676 214.925C251.676 198.278 238.181 184.783 221.534 184.783C206.142 184.783 193.444 196.319 191.617 211.217H191.391V214.925V246H203.913L203.913 217.121C203.824 216.401 203.779 215.668 203.779 214.925C203.779 214.138 203.83 213.364 203.929 212.604C203.954 212.251 204.01 211.907 204.094 211.573C205.662 203.37 212.874 197.17 221.534 197.17C231.34 197.17 239.289 205.119 239.289 214.925C239.289 216.069 239.181 217.187 238.974 218.271V245.786H251.42V218.874Z" fill="#3F83A9"/>
</svg>
